<svg enable-background="new 0 0 64 64" viewBox="0 0 64 64" xmlns="http://www.w3.org/2000/svg"><g fill="none" stroke="#000" stroke-linecap="round" stroke-linejoin="round" stroke-miterlimit="10"><path d="m41.5 42.5h10.3c.1 0 .2.2.1.3l-5.3 5.9h-.2l-5.1-5.8c-.2-.2 0-.4.2-.4z"/><path d="m46.3 33.6v8.9"/><path d="m33.1 41.4c0-7.3 5.9-13.2 13.2-13.2s13.2 5.9 13.2 13.2-5.9 13.2-13.2 13.2c-7.3-.1-13.2-6-13.2-13.2z"/><path d="m36.4 50.1h-31.6c-.2 0-.3-.1-.3-.3v-32.3c0-.2.1-.3.3-.3h44.4c.2 0 .3.1.3.3v10.7"/><path d="m24.3 9.5h-17.4c-.3.1-.2.1-.2.1v7.5"/><path d="m45.9 17.1v-4.3h-16.1-1.1"/><path d="m24.3 9.5 4.5 3.3"/></g></svg>