<svg enable-background="new 0 0 64 64" viewBox="0 0 64 64" xmlns="http://www.w3.org/2000/svg"><g fill="none" stroke="#000" stroke-linejoin="round" stroke-miterlimit="10"><path d="m47.7 42.4 7.4 7.3" stroke-linecap="round"/><path d="m39.9 34.9 2.3 11.6c.1.5.7.7 1.1.3l8.5-8.5c.4-.4.2-1-.3-1.1l-11.2-2.7c-.2-.1-.4.1-.4.4z"/><g stroke-linecap="round"><path d="m42.5 54.6h-34.9c-.2 0-.4-.2-.4-.4v-35.6c0-.2.2-.4.4-.4h48.8c.2 0 .4.2.4.4v11.7"/><path d="m53.8 18.3-.1-3.6c0-.5 0-.4 0-.8h-20.2c.4 0 .2 0 0 0l-4.2-4.4h-20.3c-.3 0-.2 0-.6 0v8.8"/></g></g></svg>