<svg enable-background="new 0 0 64 64" viewBox="0 0 64 64" xmlns="http://www.w3.org/2000/svg"><g fill="none" stroke="#000" stroke-linecap="round" stroke-linejoin="round" stroke-miterlimit="10"><path d="m4.4 12.6h55.1c1.3 0 2.4 1.3 2.4 2.9v37.9c0 1.6-1.1 2.9-2.4 2.9h-55.1c-1.3.1-2.4-1.3-2.4-2.9v-37.8c0-1.6 1.1-3 2.4-3z"/><path d="m2 20.1h60"/><path d="m19.5 7.6v8.8"/><path d="m42 7.6v8.8"/><path d="m58.2 38.9h-52.4"/><path d="m20.8 26.4v22.5"/><path d="m42 26.4v22.5"/><path d="m9.5 28.9h5v5h-5z"/><path d="m29.5 28.9h5v5h-5z"/><path d="m49.5 28.9h5v5h-5z"/><path d="m49.5 43.9h5v5h-5z"/><path d="m29.5 43.9h5v5h-5z"/><path d="m9.5 43.9h5v5h-5z"/></g></svg>